<svg width="13" height="13" viewBox="0 0 13 13" fill="none" xmlns="http://www.w3.org/2000/svg">
<path d="M12.5159 4.38408C12.4385 4.15727 12.2339 3.99707 11.9951 3.97847L8.57436 3.70666L7.09412 0.42995C6.99751 0.214543 6.78331 0.0765381 6.5475 0.0765381C6.31169 0.0765381 6.09748 0.214543 6.00088 0.42935L4.52063 3.70666L1.09992 3.97847C0.865312 3.99707 0.663106 4.15127 0.583303 4.37268C0.5035 4.59409 0.559902 4.84189 0.728508 5.0063L3.25639 7.47058L2.36236 11.3419C2.30716 11.5813 2.40376 11.8303 2.60597 11.9701C2.70917 12.0409 2.82798 12.0769 2.94738 12.0769C3.06318 12.0769 3.17959 12.0433 3.28039 11.9761L6.5475 9.79805L9.8146 11.9761C10.0234 12.1153 10.2976 12.1099 10.5016 11.9617C10.7044 11.8135 10.7938 11.5537 10.7248 11.3125L9.6274 7.47238L12.3491 5.0231C12.5273 4.86229 12.5927 4.61149 12.5159 4.38408Z" fill="white"/>
</svg>
